<svg width="21" height="18" viewBox="0 0 21 18" fill="none" xmlns="http://www.w3.org/2000/svg">
<path d="M14.5615 12.6226L15.9183 14.1546H19.0611C20.2954 14.1546 20.987 13.4718 20.987 12.2374V2.45914C20.987 1.23356 20.2954 0.541992 19.0611 0.541992H2.30575C1.12394 0.541992 0.371094 1.23356 0.371094 2.45914V12.2374C0.371094 13.4718 1.07142 14.1546 2.30575 14.1546H5.44846L6.79659 12.6226H2.71719C2.24447 12.6226 1.9906 12.3512 1.9906 11.896V2.8093C1.9906 2.33658 2.24447 2.07396 2.71719 2.07396H18.6496C19.1136 2.07396 19.3762 2.33658 19.3762 2.8093V11.896C19.3762 12.3512 19.1136 12.6226 18.6496 12.6226H14.5615ZM16.1109 17.3411C16.5399 17.3411 16.7062 16.8946 16.4348 16.5795L11.0686 10.5129C10.8672 10.2765 10.4996 10.2765 10.2895 10.5129L4.93197 16.5795C4.66059 16.8946 4.82692 17.3411 5.24712 17.3411H16.1109Z" fill="white"/>
</svg>
