<svg width="522" height="183" viewBox="0 0 522 183" fill="none" xmlns="http://www.w3.org/2000/svg">
<path d="M219.675 118.524C219.969 118.971 220.409 119.717 220.703 120.612C220.997 121.507 221.143 122.402 221.143 123.297C221.143 125.087 220.703 126.43 219.822 127.176C218.941 127.922 217.913 128.369 216.445 128.369H200.44V136.275H217.179C217.619 136.723 217.913 137.469 218.207 138.364C218.5 139.259 218.647 140.154 218.647 141.049C218.647 142.839 218.207 144.181 217.326 144.927C216.445 145.673 215.417 146.121 213.949 146.121H200.587V161.038C200 161.187 199.119 161.336 197.944 161.486C196.769 161.635 195.595 161.635 194.42 161.635C193.245 161.635 192.218 161.486 191.337 161.336C190.456 161.187 189.721 160.889 189.134 160.441C188.547 159.994 188.106 159.397 187.813 158.651C187.519 157.905 187.372 156.861 187.372 155.668V124.938C187.372 122.85 187.959 121.358 189.281 120.165C190.602 118.971 192.218 118.375 194.42 118.375H219.675V118.524Z" fill="#00A79D"/>
<path d="M221.291 127.476C221.731 127.327 222.612 127.178 223.64 127.029C224.668 126.88 225.843 126.88 227.017 126.88C228.192 126.88 229.073 126.88 230.101 127.029C230.982 127.178 231.716 127.476 232.303 127.924C232.891 128.371 233.331 128.968 233.772 129.714C234.065 130.46 234.212 131.355 234.212 132.548V147.615C234.212 149.554 234.653 150.897 235.68 151.792C236.708 152.687 238.176 152.985 240.085 152.985C241.26 152.985 242.141 152.836 243.022 152.687C243.756 152.538 244.343 152.239 244.784 152.09V127.476C245.224 127.327 246.105 127.178 247.133 127.029C248.161 126.88 249.336 126.88 250.51 126.88C251.685 126.88 252.566 126.88 253.594 127.029C254.475 127.178 255.209 127.476 255.796 127.924C256.384 128.371 256.824 128.968 257.265 129.714C257.558 130.46 257.705 131.355 257.705 132.548V153.88C257.705 156.267 256.677 158.057 254.475 159.101C252.713 160.145 250.51 160.891 248.161 161.488C245.665 162.085 243.022 162.234 240.085 162.234C237.296 162.234 234.799 161.935 232.45 161.339C230.101 160.742 228.192 159.847 226.43 158.803C224.815 157.609 223.493 156.118 222.466 154.328C221.585 152.538 221.144 150.3 221.144 147.615V127.476H221.291Z" fill="#00A79D"/>
<path d="M285.455 139.406C285.455 137.915 285.014 136.87 284.133 136.274C283.252 135.528 282.078 135.229 280.462 135.229C279.435 135.229 278.407 135.379 277.379 135.528C276.351 135.826 275.47 136.124 274.883 136.572V161.036C274.442 161.186 273.561 161.335 272.534 161.484C271.506 161.633 270.331 161.633 269.156 161.633C267.982 161.633 267.101 161.633 266.073 161.484C265.192 161.335 264.458 161.036 263.87 160.589C263.283 160.141 262.843 159.545 262.402 158.799C262.109 158.053 261.962 157.158 261.962 155.965V134.931C261.962 133.738 262.255 132.694 262.843 131.798C263.43 131.053 264.164 130.307 265.192 129.561C266.954 128.367 269.156 127.472 271.653 126.876C274.296 126.13 277.232 125.832 280.462 125.832C286.189 125.832 290.594 127.025 293.824 129.263C297.054 131.5 298.523 134.782 298.523 138.959V161.036C298.082 161.186 297.201 161.335 296.173 161.484C295.146 161.633 293.971 161.633 292.796 161.633C291.622 161.633 290.741 161.633 289.713 161.484C288.832 161.335 288.098 161.036 287.51 160.589C286.923 160.141 286.483 159.545 286.042 158.799C285.748 158.053 285.602 157.158 285.602 155.965V139.406H285.455Z" fill="#00A79D"/>
<path d="M345.802 134.484C346.829 134.037 347.71 133.888 348.445 133.738C349.326 133.589 350.207 133.44 350.941 133.44C352.115 133.44 353.143 133.589 353.877 133.888C354.612 134.186 355.199 134.634 355.639 135.23C356.08 135.827 356.373 136.573 356.52 137.319C356.667 138.065 356.814 138.96 356.814 139.855C356.814 143.584 355.786 147.313 353.731 150.744L359.604 155.965C359.457 157.755 358.87 159.247 357.548 160.291C356.373 161.485 354.905 161.932 353.143 161.932C351.088 161.932 349.179 161.037 347.123 159.247L345.655 158.054C343.746 159.247 341.69 160.291 339.194 161.037C336.845 161.783 334.055 162.081 331.118 162.081C328.182 162.081 325.539 161.783 323.19 161.037C320.84 160.291 318.931 159.247 317.316 158.054C315.701 156.86 314.526 155.369 313.792 153.579C312.911 151.938 312.618 149.998 312.618 147.91C312.618 146.12 312.911 144.628 313.499 143.286C314.086 141.943 314.82 140.75 315.701 139.705C316.582 138.661 317.61 137.766 318.785 137.02C319.959 136.274 320.987 135.678 322.162 135.23C321.134 134.037 320.4 132.843 319.959 131.65C319.519 130.457 319.372 129.114 319.372 128.07C319.372 126.578 319.666 125.236 320.4 124.042C321.134 122.849 322.015 121.655 323.19 120.76C324.364 119.865 325.833 119.12 327.595 118.523C329.356 118.075 331.412 117.777 333.615 117.777C336.845 117.777 339.047 118.374 340.369 119.418C341.69 120.462 342.424 121.805 342.424 123.446C342.424 124.191 342.278 125.086 341.984 125.832C341.69 126.578 341.103 127.324 340.516 127.921C339.928 127.622 339.341 127.473 338.607 127.324C337.873 127.175 337.139 127.175 336.258 127.175C334.936 127.175 333.908 127.324 333.027 127.772C332.146 128.219 331.706 128.816 331.706 129.86C331.706 130.606 331.999 131.352 332.734 131.948C333.468 132.694 334.202 133.44 335.23 134.335L345.067 143.136C345.361 142.092 345.508 140.899 345.655 139.407C345.802 137.915 345.802 136.274 345.802 134.484ZM325.098 147.313C325.098 148.954 325.686 150.297 326.86 151.49C328.035 152.534 329.797 153.131 332.146 153.131C333.174 153.131 334.202 152.982 335.377 152.683C336.551 152.385 337.579 151.938 338.607 151.341L328.769 142.241C327.594 142.689 326.567 143.435 325.979 144.33C325.392 145.374 325.098 146.269 325.098 147.313Z" fill="#00A79D"/>
<path d="M387.357 144.181C385.154 143.435 383.099 142.689 381.19 142.093C379.428 141.347 377.813 140.452 376.491 139.408C375.17 138.363 374.142 137.17 373.408 135.678C372.674 134.187 372.233 132.546 372.233 130.457C372.233 126.43 373.848 123.297 377.225 120.91C380.603 118.523 385.301 117.33 391.174 117.33C393.377 117.33 395.433 117.479 397.341 117.778C399.25 118.076 400.865 118.523 402.187 119.12C403.508 119.717 404.536 120.463 405.417 121.358C406.298 122.253 406.592 123.297 406.592 124.49C406.592 125.684 406.298 126.728 405.711 127.623C405.123 128.518 404.389 129.264 403.508 129.861C402.334 129.264 400.865 128.667 398.957 128.071C397.048 127.623 394.992 127.325 392.79 127.325C390.44 127.325 388.825 127.623 387.797 128.22C386.769 128.816 386.182 129.562 386.182 130.457C386.182 131.203 386.476 131.8 387.21 132.247C387.944 132.695 388.825 133.142 390.147 133.441L394.258 134.634C399.103 135.977 402.774 137.767 405.27 140.004C407.913 142.242 409.088 145.225 409.088 148.955C409.088 152.982 407.326 156.115 403.949 158.651C400.572 161.187 395.579 162.38 388.972 162.38C386.623 162.38 384.42 162.231 382.511 161.784C380.456 161.485 378.694 160.889 377.225 160.292C375.757 159.546 374.582 158.8 373.701 157.756C372.82 156.712 372.38 155.518 372.38 154.325C372.38 152.982 372.82 151.789 373.701 150.894C374.582 149.999 375.463 149.253 376.491 148.656C377.96 149.701 379.722 150.596 381.777 151.342C383.833 152.087 386.035 152.535 388.531 152.535C391.028 152.535 392.79 152.237 393.817 151.491C394.845 150.745 395.286 149.999 395.286 148.955C395.286 148.06 394.845 147.314 394.111 146.866C393.23 146.419 392.202 145.822 390.734 145.375L387.357 144.181Z" fill="#00A79D"/>
<path d="M427.445 125.838C430.235 125.838 432.731 126.136 434.933 126.584C437.136 127.032 439.191 127.927 440.807 128.971C442.422 130.015 443.596 131.358 444.477 132.998C445.358 134.639 445.799 136.579 445.799 138.667V154.479C445.799 155.673 445.358 156.717 444.624 157.463C443.89 158.209 443.009 158.955 441.981 159.402C438.604 161.192 434.052 162.087 428.032 162.087C425.389 162.087 422.893 161.789 420.691 161.341C418.488 160.894 416.726 160.148 415.111 159.253C413.496 158.358 412.321 157.164 411.587 155.673C410.706 154.181 410.266 152.54 410.266 150.601C410.266 147.319 411.293 144.932 413.349 143.142C415.405 141.352 418.635 140.308 423.04 139.86L433.025 138.816V138.369C433.025 137.026 432.437 135.982 431.116 135.385C429.794 134.789 427.885 134.49 425.536 134.49C423.627 134.49 421.718 134.639 419.957 135.087C418.195 135.534 416.433 135.982 414.964 136.429C414.23 135.982 413.79 135.385 413.349 134.49C412.909 133.595 412.615 132.7 412.615 131.805C412.615 130.612 412.909 129.567 413.643 128.822C414.23 128.076 415.258 127.479 416.579 126.882C418.048 126.435 419.81 125.987 421.865 125.689C423.774 125.987 425.683 125.838 427.445 125.838ZM428.032 153.584C428.913 153.584 429.794 153.435 430.969 153.286C431.997 153.137 432.731 152.838 433.318 152.689V147.021L427.885 147.468C426.417 147.617 425.242 147.916 424.361 148.363C423.48 148.811 423.04 149.557 423.04 150.452C423.04 151.347 423.48 152.093 424.215 152.689C424.802 153.286 426.27 153.584 428.032 153.584Z" fill="#00A79D"/>
<path d="M473.845 160.142C473.111 160.59 472.083 161.037 470.761 161.336C469.44 161.634 467.825 161.783 466.063 161.783C464.007 161.783 462.392 161.485 460.924 161.037C459.455 160.59 458.428 159.844 457.84 158.8C457.4 158.054 456.812 156.861 456.225 155.518C455.638 154.026 454.904 152.535 454.169 150.745C453.435 148.954 452.701 147.164 451.967 145.076C451.233 142.988 450.499 141.048 449.764 139.109C449.03 137.17 448.443 135.231 447.856 133.44C447.268 131.65 446.828 130.009 446.534 128.518C447.268 127.921 448.149 127.324 449.471 126.728C450.645 126.28 451.967 125.982 453.435 125.982C455.197 125.982 456.666 126.28 457.84 127.026C459.015 127.772 459.896 128.965 460.336 130.905L463.273 141.645C463.86 143.733 464.301 145.673 464.888 147.314C465.329 149.104 465.769 150.297 466.063 151.341H466.503C467.531 147.91 468.559 144.032 469.587 139.855C470.615 135.678 471.642 131.501 472.523 127.324C473.404 126.877 474.432 126.578 475.46 126.28C476.488 125.982 477.662 125.982 478.69 125.982C480.452 125.982 481.921 126.28 483.242 127.026C484.417 127.772 485.004 128.965 485.004 130.755C485.004 131.501 484.857 132.545 484.417 134.037C483.976 135.529 483.536 137.021 482.948 138.96C482.361 140.75 481.627 142.689 480.893 144.628C480.159 146.717 479.278 148.656 478.543 150.595C477.662 152.535 476.928 154.325 476.194 155.966C475.166 157.756 474.432 159.098 473.845 160.142Z" fill="#00A79D"/>
<path d="M506.142 162.23C503.205 162.23 500.415 161.782 497.772 161.036C495.129 160.291 492.927 159.097 491.018 157.605C489.109 156.114 487.641 154.174 486.466 151.788C485.438 149.401 484.851 146.716 484.851 143.583C484.851 140.451 485.438 137.765 486.466 135.528C487.494 133.29 488.962 131.5 490.724 130.008C492.486 128.517 494.542 127.472 496.891 126.876C499.241 126.13 501.59 125.832 503.939 125.832C506.582 125.832 509.078 126.279 511.281 127.025C513.483 127.771 515.392 128.815 517.007 130.158C518.622 131.5 519.797 132.992 520.678 134.931C521.559 136.721 521.999 138.81 521.999 140.898C521.999 142.539 521.559 143.732 520.531 144.627C519.503 145.522 518.182 145.97 516.42 146.268L497.772 148.655C498.36 150.147 499.534 151.34 501.149 152.086C502.911 152.832 504.82 153.279 507.169 153.279C509.225 153.279 511.281 152.981 513.043 152.534C514.952 152.086 516.42 151.489 517.594 150.743C518.475 151.191 519.063 151.937 519.65 152.683C520.237 153.578 520.531 154.473 520.531 155.368C520.531 157.456 519.503 159.097 517.301 160.141C515.686 160.887 513.777 161.484 511.868 161.782C509.812 162.081 507.904 162.23 506.142 162.23ZM503.939 134.633C502.765 134.633 501.59 134.782 500.709 135.229C499.828 135.677 499.094 136.124 498.506 136.721C497.919 137.318 497.479 137.915 497.185 138.66C496.891 139.406 496.744 140.152 496.744 140.898L509.812 138.959C509.666 138.064 509.078 137.02 508.197 136.124C507.316 135.08 505.848 134.633 503.939 134.633Z" fill="#00A79D"/>
<path d="M249.633 72.8731C249.34 72.4256 249.046 71.6797 248.752 70.9339C248.459 70.0388 248.312 69.1438 248.312 68.2488C248.312 66.4587 248.752 65.2653 249.487 64.5194C250.221 63.7736 251.249 63.326 252.423 63.326H280.909C281.202 63.7736 281.496 64.5194 281.79 65.2653C282.083 66.1603 282.23 67.0554 282.23 67.9504C282.23 69.7405 281.79 70.9339 281.055 71.6797C280.321 72.4256 279.293 72.8731 278.119 72.8731H270.924V103.454C270.484 103.603 269.749 103.752 268.722 103.901C267.694 104.05 266.666 104.05 265.638 104.05C264.61 104.05 263.729 103.901 262.995 103.752C262.261 103.603 261.527 103.304 261.086 102.857C260.499 102.409 260.205 101.962 259.912 101.216C259.618 100.47 259.471 99.5751 259.471 98.3817V72.8731H249.633Z" fill="#ED1C24"/>
<path d="M283.698 71.9759C284.138 71.8268 284.872 71.6776 285.753 71.5284C286.634 71.3792 287.662 71.3792 288.69 71.3792C289.718 71.3792 290.452 71.3792 291.333 71.5284C292.067 71.6776 292.801 71.9759 293.242 72.2743C293.829 72.7218 294.123 73.1693 294.416 73.9152C294.71 74.661 294.857 75.5561 294.857 76.6003V90.7717C294.857 92.5618 295.297 93.9044 296.178 94.6502C297.059 95.3961 298.234 95.8436 299.996 95.8436C301.024 95.8436 301.758 95.6945 302.492 95.5453C303.08 95.3961 303.667 95.2469 303.961 94.9486V71.9759C304.401 71.8268 305.135 71.6776 306.016 71.5284C306.897 71.3792 307.925 71.3792 308.953 71.3792C309.981 71.3792 310.715 71.3792 311.596 71.5284C312.33 71.6776 313.064 71.9759 313.505 72.2743C314.092 72.7218 314.386 73.1693 314.679 73.9152C314.973 74.661 315.12 75.5561 315.12 76.6003V96.7387C315.12 98.9763 314.239 100.617 312.33 101.661C310.862 102.706 308.953 103.302 306.897 103.899C304.842 104.346 302.492 104.645 299.996 104.645C297.647 104.645 295.444 104.346 293.535 103.899C291.627 103.302 289.865 102.556 288.396 101.512C286.928 100.468 285.9 98.9763 285.019 97.1862C284.285 95.3961 283.845 93.3077 283.845 90.9209V71.9759H283.698ZM286.047 61.5338C286.047 60.0421 286.634 58.6995 287.662 57.5061C288.69 56.3128 290.158 55.8652 291.773 55.8652C293.535 55.8652 295.004 56.4619 296.032 57.5061C297.059 58.6995 297.647 60.0421 297.647 61.5338C297.647 63.0255 297.059 64.3681 296.032 65.5615C295.004 66.7549 293.535 67.2024 291.773 67.2024C291.039 67.2024 290.305 67.0532 289.571 66.7549C288.837 66.4565 288.25 66.009 287.809 65.5615C287.222 65.114 286.928 64.5173 286.634 63.7714C286.194 63.0255 286.047 62.2797 286.047 61.5338ZM300.583 61.5338C300.583 60.0421 301.024 58.6995 302.052 57.5061C303.08 56.3128 304.548 55.8652 306.31 55.8652C307.191 55.8652 307.925 56.0144 308.659 56.3128C309.393 56.6111 309.981 57.0586 310.421 57.5061C310.862 57.9537 311.302 58.6995 311.596 59.2962C311.889 60.0421 312.036 60.6388 312.036 61.3846C312.036 62.8764 311.449 64.2189 310.421 65.4123C309.393 66.6057 307.925 67.0532 306.31 67.0532C304.548 67.0532 303.08 66.4565 302.052 65.4123C301.024 64.3681 300.583 63.0255 300.583 61.5338Z" fill="#ED1C24"/>
<path d="M330.979 103.603C330.538 103.752 329.804 103.901 328.923 104.05C328.042 104.2 327.014 104.2 325.986 104.2C324.958 104.2 324.224 104.2 323.343 104.05C322.609 103.901 321.875 103.603 321.434 103.305C320.847 102.857 320.553 102.409 320.26 101.664C319.966 100.918 319.819 100.023 319.819 98.9785V78.9893C319.819 77.9451 319.966 77.0501 320.407 76.3042C320.847 75.5583 321.288 74.9616 322.022 74.365C322.756 73.7683 323.637 73.3207 324.665 72.8732C325.693 72.4257 326.72 71.9782 327.895 71.6798C329.07 71.3815 330.244 71.0831 331.566 70.7848C332.887 70.6356 334.062 70.4865 335.383 70.4865C337.439 70.4865 339.054 70.934 340.376 71.6798C341.55 72.4257 342.138 73.7683 342.138 75.7075C342.138 76.3042 341.991 76.9009 341.844 77.4976C341.697 78.0943 341.404 78.691 341.257 79.1385C340.376 79.1385 339.348 79.1385 338.467 79.2877C337.439 79.4368 336.558 79.4368 335.677 79.7352C334.796 79.8844 333.915 80.0335 333.034 80.3319C332.3 80.4811 331.566 80.7794 330.979 81.0777V103.603Z" fill="#ED1C24"/>
<path d="M376.055 97.7823C375.908 99.8707 375.174 101.512 374.293 102.556C373.265 103.6 371.943 104.197 370.034 104.197C368.713 104.197 367.391 103.898 366.364 103.153C365.336 102.407 364.161 101.362 362.84 99.7215L356.379 91.517V103.6C355.939 103.749 355.204 103.749 354.323 103.898C353.442 104.048 352.415 104.197 351.534 104.197C350.506 104.197 349.772 104.197 348.891 104.048C348.157 103.898 347.422 103.6 346.982 103.302C346.395 102.854 346.101 102.407 345.807 101.661C345.514 100.915 345.367 100.02 345.367 98.9757V60.6382C345.807 60.489 346.541 60.3399 347.422 60.1907C348.303 60.0415 349.331 59.8923 350.212 59.8923C351.24 59.8923 351.974 59.8923 352.855 60.0415C353.589 60.1907 354.323 60.489 354.764 60.7874C355.351 61.2349 355.645 61.6824 355.939 62.4283C356.232 63.1741 356.379 64.0692 356.379 65.1134V82.5666L367.538 70.9311C369.741 70.9311 371.65 71.3787 372.971 72.4229C374.293 73.4671 375.027 74.6605 375.027 76.3014C375.027 76.8981 374.88 77.6439 374.733 78.0915C374.586 78.6881 374.146 79.1357 373.705 79.7324C373.265 80.329 372.677 80.9257 371.943 81.5224C371.209 82.1191 370.328 82.865 369.447 83.76L365.629 87.0418L376.055 97.7823Z" fill="#ED1C24"/>
<path d="M379.436 62.5762C379.436 60.9353 380.023 59.4435 381.051 58.3993C382.226 57.2059 383.694 56.6093 385.456 56.6093C387.218 56.6093 388.686 57.2059 389.861 58.3993C391.035 59.5927 391.476 60.9353 391.476 62.5762C391.476 64.2171 390.889 65.7088 389.861 66.753C388.686 67.9464 387.218 68.5431 385.456 68.5431C383.694 68.5431 382.226 67.9464 381.051 66.753C379.876 65.7088 379.436 64.2171 379.436 62.5762ZM391.035 103.599C390.595 103.748 389.861 103.748 388.98 103.897C388.099 104.046 387.071 104.195 386.19 104.195C385.162 104.195 384.428 104.195 383.547 104.046C382.813 103.897 382.079 103.599 381.638 103.3C381.051 102.853 380.757 102.405 380.464 101.66C380.17 100.914 380.023 100.019 380.023 98.9744V71.9741C380.464 71.8249 381.198 71.8249 382.079 71.6757C382.96 71.5266 383.988 71.3774 384.869 71.3774C385.896 71.3774 386.631 71.3774 387.512 71.5266C388.246 71.6757 388.98 71.9741 389.42 72.2724C390.008 72.7199 390.301 73.1675 390.595 73.9133C390.889 74.6592 391.035 75.5542 391.035 76.5984V103.599Z" fill="#ED1C24"/>
<path d="M401.31 95.3935C400.87 94.3493 400.282 93.0067 399.842 91.6641C399.254 90.3216 398.667 88.6807 398.08 86.8906C397.493 85.1005 396.905 83.1613 396.318 80.7745C395.731 78.5369 394.996 75.8518 394.262 72.8683C394.85 72.2716 395.731 71.675 396.758 71.2274C397.786 70.7799 398.961 70.4816 400.135 70.4816C401.604 70.4816 402.925 70.7799 403.953 71.3766C404.981 71.9733 405.715 73.1667 406.156 74.9568L411.295 93.1559H411.588C412.176 91.6641 412.616 90.0232 413.057 88.2332C413.497 86.4431 414.084 84.653 414.525 82.7138C414.965 80.7745 415.406 78.9844 415.846 77.0452C416.287 75.1059 416.581 73.3159 416.874 71.5258C418.489 70.6307 420.105 70.3324 422.013 70.3324C423.482 70.3324 424.803 70.6307 425.831 71.3766C426.859 71.9733 427.299 73.1667 427.299 74.8076C427.299 76.001 427.152 77.3435 426.859 78.9844C426.565 80.6253 426.125 82.2662 425.684 84.0563C425.244 85.8464 424.656 87.6365 423.922 89.5757C423.188 91.515 422.601 93.3051 421.867 95.0951C421.132 96.8852 420.398 98.6753 419.517 100.167C418.783 101.808 417.902 103.3 417.168 104.493C415.993 106.581 414.819 108.372 413.791 109.863C412.763 111.206 411.735 112.25 410.854 113.145C409.826 113.891 408.945 114.488 407.918 114.786C406.89 115.084 406.009 115.233 404.981 115.233C403.219 115.233 401.751 114.637 400.576 113.593C399.401 112.548 398.814 111.057 398.52 109.267C399.842 108.222 401.31 106.88 402.632 105.537C403.953 104.195 405.275 102.852 406.449 101.36C405.715 101.211 404.981 100.615 404.1 99.8687C403.219 99.1228 402.338 97.7802 401.31 95.3935Z" fill="#ED1C24"/>
<path d="M447.124 104.793C444.628 104.793 442.132 104.495 439.929 103.749C437.727 103.003 435.818 101.959 434.203 100.467C432.588 98.9757 431.266 97.1856 430.385 94.948C429.504 92.7104 428.917 90.1745 428.917 87.191C428.917 84.2076 429.357 81.8208 430.385 79.7324C431.266 77.6439 432.588 75.8539 434.056 74.5113C435.524 73.1688 437.286 72.1245 439.342 71.5278C441.251 70.9312 443.306 70.6328 445.362 70.6328C447.711 70.6328 449.767 70.9312 451.676 71.677C453.585 72.4229 455.2 73.3179 456.521 74.6605C457.843 75.8539 459.017 77.3456 459.752 79.1357C460.486 80.9258 460.926 82.7158 460.926 84.8043C460.926 86.296 460.486 87.4894 459.752 88.2352C458.871 88.9811 457.843 89.5778 456.228 89.727L440.076 92.1137C440.517 93.6055 441.545 94.6497 443.013 95.3955C444.481 96.1414 446.243 96.4398 448.152 96.4398C449.914 96.4398 451.676 96.1414 453.144 95.6939C454.759 95.2464 456.081 94.6497 456.962 94.053C457.696 94.5005 458.283 95.0972 458.724 95.8431C459.164 96.5889 459.458 97.484 459.458 98.379C459.458 100.318 458.577 101.81 456.668 102.854C455.347 103.6 453.731 104.048 451.97 104.346C450.208 104.644 448.592 104.793 447.124 104.793ZM445.215 78.6882C444.187 78.6882 443.306 78.8373 442.572 79.2849C441.838 79.5832 441.251 80.0307 440.664 80.6274C440.223 81.2241 439.783 81.8208 439.636 82.4175C439.342 83.1633 439.195 83.76 439.195 84.5059L450.354 82.7158C450.208 81.8208 449.767 80.9258 448.886 80.0307C448.152 79.1357 446.83 78.6882 445.215 78.6882Z" fill="#ED1C24"/>
<path d="M64.1861 41.8368C64.3329 40.7926 64.1861 39.7484 63.5987 38.2567C63.0114 36.7649 62.1304 35.8699 61.2494 35.2732C60.8089 34.9749 60.3684 34.8257 59.928 34.8257C59.6343 34.8257 59.1938 34.9749 58.7533 35.124C57.8723 35.5715 57.4318 36.1682 57.1382 37.0633C56.8445 38.1075 57.1382 39.3009 57.7255 40.7926C58.3128 42.2843 59.047 43.3286 59.928 43.7761C60.6621 44.2236 61.5431 44.2236 62.4241 43.7761C63.4519 43.4777 64.0392 42.7319 64.1861 41.8368Z" fill="#ED1C24"/>
<path d="M66.5374 0.219513C39.3736 0.0703395 32.032 26.0265 4.86816 25.8773C12.5034 44.5239 16.1742 53.9218 23.6626 72.5685C39.0799 72.5685 48.4771 64.9606 57.8744 57.2036C58.7554 56.4578 59.6363 55.7119 60.5173 54.966C60.9578 53.0268 61.5452 51.0875 62.1325 49.1483C61.5452 49.2975 60.811 49.4466 60.2237 49.4466C60.0768 49.4466 59.93 49.4466 59.7832 49.4466C58.168 49.2975 56.6997 48.8499 55.3782 47.8057C54.0567 46.7615 53.0289 45.2698 52.2948 43.4797C51.5606 41.6896 51.2669 39.8996 51.4138 38.1095C51.5606 36.3194 52.1479 34.8277 53.0289 33.4851C53.9099 32.1426 55.2314 31.0983 56.8465 30.5016C59.1958 29.4574 61.5452 29.4574 63.8945 30.3525C66.0969 31.2475 67.7121 33.0376 69.0336 35.4244C70.5019 33.0376 72.2639 30.8 74.1727 28.7116C75.0537 27.6674 76.0815 26.7723 76.9625 25.7281C73.2917 16.7777 68.7399 5.58974 66.5374 0.219513ZM35.1155 41.988C33.9408 42.5847 32.6193 42.883 31.4447 42.883C30.27 42.883 29.2422 42.5847 28.0676 42.1372C25.8651 41.0929 24.1031 39.3029 22.7816 36.7669C21.4601 34.0818 21.3133 31.695 22.1943 29.4574C23.0753 27.2198 24.8373 25.4298 27.3334 24.2364C29.8295 23.043 32.1788 22.8938 34.3813 23.6397C36.5838 24.5347 38.3458 26.3248 39.5204 29.1591C40.6951 31.8442 40.8419 34.5293 39.9609 36.9161C39.0799 39.1537 37.4648 40.9438 35.1155 41.988ZM48.9176 36.4686C47.5962 42.2863 46.2747 48.2533 45.6873 56.0103C45.6873 56.1594 45.5405 56.3086 45.3937 56.4578C43.4849 57.502 42.4571 57.9495 40.6951 58.8445C40.5482 58.8445 40.5482 58.8445 40.4014 58.8445C40.2546 58.8445 40.2546 58.8445 40.1077 58.6954C39.9609 58.5462 39.8141 58.397 39.8141 58.2479C40.1077 49.2975 41.5761 42.883 43.1912 36.0211C44.5127 30.2033 45.8342 24.2364 46.4215 16.4794C46.4215 16.3302 46.5683 16.181 46.7152 16.0319C48.624 14.9876 49.6518 14.5401 51.4138 13.6451C51.5606 13.4959 51.8543 13.6451 52.0011 13.6451C52.1479 13.7943 52.2948 13.9434 52.2948 14.0926C51.8543 23.1922 50.386 29.7558 48.9176 36.4686Z" fill="#ED1C24"/>
<path d="M31.7386 28.5612C31.2981 28.2628 30.8576 28.2628 30.4171 28.2628C29.9766 28.2628 29.5361 28.412 29.0956 28.5612C28.2146 29.0087 27.6273 29.6054 27.4804 30.5004C27.1868 31.5446 27.4804 32.5888 28.0678 34.0806C28.6551 35.5723 29.5361 36.4673 30.4171 37.064C31.2981 37.5116 32.0322 37.6607 32.9132 37.2132C33.7942 36.7657 34.2347 36.169 34.5284 35.274C34.6752 34.2297 34.5284 33.0364 33.941 31.5446C33.3537 30.0529 32.6195 29.1579 31.7386 28.5612Z" fill="#ED1C24"/>
<path d="M39.5169 29.0052C38.3423 26.3201 36.5803 24.3808 34.3778 23.4858C32.1753 22.5907 29.826 22.7399 27.3299 24.0825C24.8338 25.2759 23.0718 27.0659 22.1908 29.3035C21.3098 31.5411 21.4566 33.9279 22.7781 36.613C24.0996 39.2981 25.8616 41.0882 28.0641 41.9832C29.2387 42.4308 30.2665 42.7291 31.4412 42.7291C32.6158 42.7291 33.7905 42.4308 35.112 41.8341C37.4613 40.7899 39.2233 38.9998 39.9574 36.613C40.8384 34.3754 40.6916 31.8395 39.5169 29.0052ZM34.6715 35.4196C34.5246 36.3147 33.9373 37.0605 33.0563 37.3589C32.1753 37.6572 31.4412 37.6572 30.5602 37.2097C29.6792 36.7622 28.945 35.718 28.2109 34.2262C27.6236 32.7345 27.3299 31.5411 27.6236 30.6461C27.7704 29.751 28.3577 29.0052 29.2387 28.7068C29.6792 28.5577 30.1197 28.4085 30.5602 28.4085C31.0007 28.4085 31.4412 28.5577 31.8817 28.7068C32.7627 29.1544 33.4968 30.1986 34.0841 31.6903C34.6715 33.0329 34.8183 34.3754 34.6715 35.4196Z" fill="white"/>
<path d="M63.7447 30.3546C61.3954 29.3103 59.1929 29.3103 56.6968 30.5037C55.0816 31.2496 53.907 32.2938 52.8791 33.4872C51.9982 34.8297 51.4108 36.3215 51.264 38.1116C51.1172 39.7525 51.4108 41.5425 52.145 43.4818C52.8791 45.2719 53.907 46.7636 55.2285 47.8078C56.5499 48.852 58.0183 49.4487 59.6334 49.4487C59.7802 49.4487 59.9271 49.4487 60.0739 49.4487C60.6612 49.4487 61.3954 49.2995 62.1295 49.1504C62.57 47.957 63.0105 46.7636 63.451 45.5702C63.8915 44.3768 64.4788 43.1834 64.9193 42.1392C65.5067 40.9458 66.094 39.9016 66.6813 38.8574C67.2686 37.8132 68.0028 36.6198 68.737 35.5756C67.5623 33.0397 65.9472 31.2496 63.7447 30.3546ZM60.0739 43.7801C59.1929 43.3326 58.4587 42.2884 57.8714 40.7967C57.2841 39.3049 56.9904 37.9624 57.2841 37.0673C57.4309 36.1723 58.0183 35.4264 58.8992 35.1281C59.3397 34.9789 59.6334 34.8298 60.0739 34.8298C60.5144 34.8298 60.9549 34.9789 61.3954 35.2773C62.2764 35.7248 63.0105 36.769 63.7447 38.2607C64.332 39.7525 64.6257 40.9458 64.332 41.8409C64.1852 42.7359 63.5979 43.4818 62.7169 43.7801C61.689 44.2277 60.9549 44.2277 60.0739 43.7801Z" fill="white"/>
<path d="M51.4154 13.9452C49.5066 14.8402 48.6256 15.2877 46.7168 16.3319C46.5699 16.4811 46.4231 16.6303 46.4231 16.7795C45.6889 24.5365 44.3675 30.5034 43.1928 36.3211C41.7245 43.1831 40.2562 49.5975 39.8157 58.5479C39.8157 58.6971 39.9625 58.8463 40.1093 58.9954C40.2562 58.9954 40.2562 59.1446 40.403 59.1446C40.5498 59.1446 40.5498 59.1446 40.6967 59.1446C42.6055 58.2496 43.4865 57.8021 45.3953 56.7579C45.5421 56.6087 45.6889 56.4595 45.6889 56.3103C46.4231 48.5533 47.7446 42.5864 48.9192 36.7687C50.3875 29.9067 51.8559 23.4923 52.2964 14.691C52.2964 14.5419 52.1495 14.3927 52.0027 14.2435C51.8559 13.796 51.5622 13.796 51.4154 13.9452Z" fill="white"/>
<path d="M23.6608 72.571C26.5974 72.571 29.2404 72.2726 31.7365 71.8251L13.3826 24.9847C10.7396 25.5814 7.94981 25.8798 5.01318 25.8798C12.5016 44.5264 16.1724 53.9243 23.6608 72.571Z" fill="#BE1E2D"/>
<path d="M190.899 42.2892C184.879 56.3115 173.866 67.7978 162.854 71.5272C163.441 44.3777 143.179 21.2558 116.308 19.4658C88.7041 17.6757 65.7984 39.0074 63.1555 66.9028C62.4213 75.2565 64.4769 85.2511 68.1477 95.8424C68.7351 97.6324 68.4414 99.5717 67.2667 100.914C63.3023 105.837 58.4568 109.566 53.7582 113.445C49.9406 116.577 45.3888 115.086 42.4522 114.937C43.7737 117.771 42.8927 122.395 40.9839 125.528C42.8927 129.108 43.7737 133.732 47.004 136.119C53.1709 129.406 63.7428 125.826 68.735 124.484C72.1122 123.439 79.7474 123.141 82.5372 128.064C91.2003 144.473 100.451 158.644 104.562 164.76C105.59 166.401 107.939 166.55 109.261 165.059C116.455 156.705 137.599 131.346 151.108 106.434C153.016 103.003 155.953 100.019 159.477 98.5275C185.319 87.0412 196.038 64.9636 201.03 47.3611C198.094 46.7644 190.899 42.2892 190.899 42.2892Z" fill="#00A79D"/>
<path d="M167.406 88.5285C163.441 91.0645 158.449 87.7827 159.183 83.1583C160.211 77.0422 160.798 69.8819 159.33 66.3017C159.036 65.4067 157.421 65.705 157.421 66.6001C155.219 99.1198 119.539 135.518 111.903 145.363C109.848 148.049 106.03 148.049 103.828 145.662C93.5494 134.175 85.6205 120.004 77.1043 107.324C76.517 106.429 75.9297 106.728 76.0765 107.772C76.3702 114.932 57.282 125.971 53.0239 122.54C51.9961 121.645 52.5834 121.048 52.5834 119.557C52.5834 118.214 49.7936 117.916 49.9405 116.573C50.0873 116.126 50.0873 115.529 50.0873 115.081C47.2975 115.678 44.3609 114.932 42.3052 114.783C43.6267 117.468 42.7457 122.242 40.8369 125.374C42.7457 128.954 43.6267 133.579 46.857 135.966C53.0239 129.253 63.5958 125.673 68.5881 124.33C71.9652 123.286 79.6004 122.988 82.3902 127.91C91.0533 144.319 100.304 158.491 104.415 164.607C105.443 166.248 107.792 166.397 109.114 164.905C116.308 156.551 137.599 131.043 150.961 106.28C153.016 102.551 156.1 99.8657 159.917 98.0756C181.355 88.3793 192.22 71.5228 198.094 56.0088C192.367 58.3956 183.998 77.7881 167.406 88.5285Z" fill="#009C92"/>
<path d="M8.24329 21.4003L58.6065 148.794C58.9002 149.391 58.6065 149.988 58.0192 150.286L54.7889 151.628C54.2016 151.927 53.6142 151.628 53.3206 151.032L0.167555 24.6821C-0.27294 23.6379 0.167555 22.4445 1.34221 21.997L5.74715 20.2069C6.62814 19.9086 7.8028 20.3561 8.24329 21.4003Z" fill="#ED1C24"/>
<path d="M58.6065 148.799L57.4318 145.667C55.2293 146.264 53.4674 144.473 52.2927 141.937L51.2649 139.7C49.2092 134.031 47.4473 121.053 42.6018 119.114L2.22315 22.4498C2.07631 22.1515 1.92948 22.0023 1.78265 21.8531L1.34216 22.0023C0.314336 22.4498 -0.27299 23.6432 0.167505 24.6874L53.3205 151.037C53.6142 151.634 54.2015 151.932 54.7888 151.634L58.0191 150.291C58.4596 149.993 58.7533 149.396 58.6065 148.799Z" fill="#BE1E2D"/>
<path d="M49.5061 132.532C49.2125 131.339 47.5973 130.444 46.5695 130.891C46.5695 130.891 46.5695 130.444 46.8632 129.847C47.3037 128.355 46.8632 126.864 45.3949 126.118C44.9544 125.819 43.6329 125.969 43.6329 125.969C43.6329 125.969 45.3949 123.88 44.9544 122.239C44.8075 121.493 43.9265 120.598 43.1924 120.151C42.3114 119.703 41.1367 119.554 40.1089 119.703C38.7874 119.852 37.466 120.449 36.4381 121.344C35.8508 121.792 35.2635 122.538 34.9698 123.433C34.5293 124.924 35.1166 127.013 36.4381 127.759C36.585 127.908 36.7318 127.908 36.8786 127.908C37.0255 127.908 37.0255 127.908 37.1723 128.057C37.0255 128.206 37.0255 128.504 36.8786 128.803C36.4381 131.19 37.7596 133.726 40.1089 134.173C40.4026 134.173 40.6962 134.173 40.9899 134.173C40.9899 134.322 40.9899 134.621 40.9899 134.77C40.9899 135.366 41.1367 135.814 41.2836 136.112C41.5772 137.007 42.4582 137.455 43.1924 137.604C43.9265 137.753 44.5139 137.604 45.248 137.455C46.129 137.157 47.1568 136.858 47.891 136.112C48.9188 135.068 49.7998 133.875 49.5061 132.532Z" fill="#00A79D"/>
<path d="M46.7146 130.895C46.7146 130.895 46.7146 130.448 47.0082 129.851C47.4487 128.359 47.0082 126.868 45.5399 126.122C45.0994 125.823 43.7779 125.973 43.7779 125.973C43.7779 125.973 45.5399 123.884 45.0994 122.243C44.9526 121.497 44.0716 120.602 43.3374 120.155C43.0438 120.006 42.8969 120.006 42.6033 119.857C43.0438 121.348 42.7501 123.288 42.1628 124.481C40.9881 126.868 38.3452 127.614 35.9958 127.017C36.1427 127.315 36.4363 127.464 36.73 127.614C36.8768 127.763 37.0237 127.763 37.1705 127.763C37.3173 127.763 37.3173 127.763 37.4642 127.912C37.4642 128.061 37.3173 128.359 37.1705 128.509C37.3173 128.509 37.3173 128.509 37.4642 128.359C38.7856 128.21 40.6945 128.21 41.7223 127.017C41.7223 126.868 41.8691 126.868 42.0159 126.868C42.3096 126.42 42.7501 126.271 43.3374 126.569C44.9526 127.614 44.8057 129.553 43.6311 130.448C42.0159 131.94 39.2261 131.343 37.3173 130.597C37.7578 132.238 38.7856 133.58 40.5476 133.879C40.9881 134.028 41.5754 134.028 42.1628 133.879C45.5399 133.282 46.1272 132.238 46.1272 132.238C46.4209 131.641 48.4765 132.536 48.3297 133.133C48.3297 135.669 42.6033 136.116 41.7223 136.116H41.5754C42.0159 136.862 42.7501 137.31 43.4843 137.459C44.2184 137.608 44.8057 137.459 45.5399 137.31C46.4209 137.011 47.4487 136.713 48.1829 135.967C48.917 135.221 49.798 133.879 49.6512 132.685C49.3575 131.343 47.7424 130.448 46.7146 130.895Z" fill="#009C92"/>
<path d="M42.3097 112.693C41.5755 113.141 41.135 113.887 41.135 114.632C41.135 115.677 41.8692 116.572 42.7502 117.019C44.5121 118.063 45.8336 117.168 47.3019 120.301C48.0361 121.793 52.7347 115.229 51.4132 114.782C48.9171 113.887 46.2741 112.544 43.4843 112.246C43.0438 112.395 42.7502 112.395 42.3097 112.693Z" fill="#00A79D"/>
<path d="M44.659 115.977C43.3375 115.38 42.1628 114.336 41.8692 112.993C41.4287 113.441 41.135 114.037 41.135 114.634C41.135 115.678 41.8692 116.573 42.7502 117.021C44.5121 118.065 45.8336 117.17 47.3019 120.303C47.7424 121.198 49.3576 119.408 50.5322 117.618C48.4766 117.468 46.4209 116.723 44.659 115.977Z" fill="#009C92"/>
<path d="M90.6145 70.9296C92.0828 72.7196 93.4043 74.6589 95.3131 75.8523C96.9282 77.344 98.837 78.5374 100.599 79.5816C104.27 81.67 108.234 83.1618 112.346 83.7584C116.31 84.5043 120.421 84.3551 124.533 83.4601C124.973 83.3109 125.56 83.3109 126.001 83.1618L127.469 82.5651C128.497 82.2667 129.378 81.8192 130.406 81.3717C131.287 80.9242 132.315 80.4766 133.342 79.88C134.223 79.2833 135.251 78.6866 136.132 78.0899C135.545 85.5485 131.727 91.0679 126.882 94.6481C122.036 98.0791 116.163 99.2725 110.73 98.3774C105.298 97.4824 100.159 94.4989 96.194 89.8745C94.2852 87.4878 92.6701 84.8027 91.4954 81.5209C91.2018 80.6258 91.0549 79.88 90.7613 79.1341C90.6144 78.239 90.4676 77.344 90.3208 76.449C90.174 74.6589 90.3208 72.5705 90.6145 70.9296Z" fill="#009C92"/>
<path d="M90.7587 67.7963C92.2271 69.4372 93.6954 70.9289 95.4574 72.1223C97.0725 73.4648 98.9813 74.5091 100.89 75.4041C104.708 77.1942 108.672 78.5367 112.93 78.9842C117.042 79.7301 121.3 79.4318 125.411 78.6859C125.998 78.5367 126.439 78.5367 127.026 78.3876L128.494 77.94C129.522 77.6417 130.55 77.3433 131.431 76.8958C132.459 76.4483 133.487 76.15 134.368 75.5533C135.249 74.9566 136.277 74.5091 137.304 74.0615C136.717 80.476 132.753 85.5479 127.907 88.5313C122.915 91.5148 116.895 92.559 111.315 91.8131C105.736 91.0673 100.45 88.3822 96.4852 84.3545C94.5764 82.2661 92.8144 79.8793 91.7866 77.045C91.4929 76.2991 91.3461 75.5533 91.0524 74.9566C90.9056 74.2107 90.7587 73.4648 90.6119 72.5698C90.1714 71.0781 90.3183 69.288 90.7587 67.7963Z" fill="white"/>
<path d="M108.821 47.6598C107.499 43.9304 103.829 42.4387 100.598 44.378C95.1655 47.5106 96.9275 59.7428 104.122 57.6544C107.94 56.6101 110.142 51.3891 108.821 47.6598Z" fill="#009C92"/>
<path d="M121.448 52.8809C122.329 51.6875 123.356 50.9417 124.531 50.345C125.706 49.7483 127.027 49.5991 128.349 49.5991C129.67 49.5991 130.845 49.8975 132.02 50.345C132.607 50.6433 133.047 50.9417 133.635 51.0909C134.075 51.3892 134.516 51.8367 134.956 52.1351C135.837 52.8809 135.984 54.3727 135.103 55.2677C134.516 55.8644 133.635 56.1627 132.901 55.8644H132.607C131.726 55.566 130.992 55.4169 130.258 55.1185C129.523 54.9694 128.789 54.8202 128.202 54.8202C127.615 54.8202 126.88 54.9694 126.293 54.9694C125.706 55.1185 124.972 55.4169 124.531 55.566L123.503 55.8644C122.475 56.1627 121.301 55.4169 121.154 54.3727C120.86 53.9251 121.007 53.3284 121.448 52.8809Z" fill="#009C92"/>
<path d="M108.821 45.5709C107.499 41.8416 103.829 40.3498 100.598 42.2891C95.1655 45.4217 96.9275 57.6539 104.122 55.5655C107.94 54.5213 110.142 49.151 108.821 45.5709Z" fill="white"/>
<path d="M121.448 50.6419C122.329 49.4485 123.356 48.7027 124.531 48.106C125.706 47.5093 127.027 47.3601 128.349 47.3601C129.67 47.3601 130.845 47.6585 132.02 48.106C132.607 48.4043 133.047 48.7027 133.635 48.8518C134.075 49.1502 134.516 49.5977 134.956 49.896C135.837 50.6419 135.984 52.1336 135.103 53.0287C134.516 53.6254 133.635 53.9237 132.901 53.6254H132.607C131.726 53.327 130.992 53.1779 130.258 52.8795C129.523 52.7303 128.789 52.5812 128.202 52.5812C127.615 52.5812 126.88 52.7303 126.293 52.7303C125.706 52.8795 124.972 53.1779 124.531 53.327L123.503 53.9237C122.475 54.2221 121.301 53.4762 121.154 52.432C120.86 51.8353 121.007 51.0894 121.448 50.6419Z" fill="white"/>
<path d="M209.989 41.5401C208.521 40.4959 207.052 41.5401 205.878 42.7335C205.731 42.8827 205.584 42.7335 205.731 42.5844C210.723 35.5732 206.759 30.7997 201.62 37.6616C201.473 37.8108 201.179 37.6616 201.326 37.5125C202.354 34.2307 202.501 29.308 198.683 30.5013C195.306 31.5455 195.599 38.2583 192.81 39.7501C184.734 25.2803 186.202 52.579 189.873 55.8608C195.159 60.7835 208.961 49.7447 211.017 44.2253C211.164 43.181 210.87 41.9877 209.989 41.5401Z" fill="#00A79D"/>
<path d="M108.383 182.514C129.548 182.514 146.706 180.577 146.706 178.188C146.706 175.799 129.548 173.862 108.383 173.862C87.2179 173.862 70.0601 175.799 70.0601 178.188C70.0601 180.577 87.2179 182.514 108.383 182.514Z" fill="#E6E7E8"/>
</svg>
