<svg width="483" height="22" viewBox="0 0 483 22" fill="none" xmlns="http://www.w3.org/2000/svg">
<path d="M4.9453 4.68845C5.53096 4.68845 6.06881 4.79004 6.55886 4.99323C7.06085 5.19642 7.49113 5.51913 7.8497 5.96136C8.22022 6.39164 8.50707 6.94742 8.71026 7.6287C8.9254 8.30997 9.03297 9.1287 9.03297 10.0849C9.03297 11.0411 8.91942 11.8598 8.69233 12.5411C8.47719 13.2223 8.17838 13.7841 7.79591 14.2263C7.42539 14.6566 6.98914 14.9733 6.48714 15.1765C5.9971 15.3797 5.48315 15.4813 4.9453 15.4813C4.35964 15.4813 3.81582 15.3797 3.31382 15.1765C2.82378 14.9733 2.3935 14.6566 2.02298 14.2263C1.66441 13.7841 1.37756 13.2223 1.16242 12.5411C0.959231 11.8598 0.857637 11.0411 0.857637 10.0849C0.857637 9.16456 0.965207 8.36974 1.18035 7.70041C1.40744 7.01913 1.70625 6.45738 2.07677 6.01514C2.45924 5.56096 2.89549 5.2263 3.38554 5.01116C3.88753 4.79602 4.40745 4.68845 4.9453 4.68845ZM2.39948 10.0849C2.39948 10.9574 2.47119 11.6686 2.61462 12.2184C2.75804 12.7682 2.9433 13.2044 3.1704 13.5271C3.40944 13.8379 3.68434 14.053 3.9951 14.1725C4.30586 14.2801 4.62857 14.3339 4.96323 14.3339C5.29789 14.3339 5.61463 14.2682 5.91343 14.1367C6.22419 14.0052 6.49312 13.7781 6.72021 13.4554C6.95926 13.1327 7.14452 12.7024 7.27599 12.1646C7.41942 11.6148 7.49113 10.9215 7.49113 10.0849C7.49113 9.21237 7.41942 8.50121 7.27599 7.95141C7.13256 7.4016 6.94133 6.97132 6.70228 6.66056C6.46324 6.34981 6.18834 6.13467 5.87758 6.01514C5.57877 5.89562 5.26204 5.83586 4.92737 5.83586C4.59271 5.83586 4.27 5.9016 3.95924 6.03307C3.66044 6.16455 3.39151 6.39164 3.15247 6.71435C2.92537 7.03706 2.74011 7.47332 2.59669 8.02312C2.46521 8.56097 2.39948 9.24822 2.39948 10.0849ZM10.7569 14.3698C10.7569 14.059 10.8645 13.7961 11.0796 13.5809C11.2947 13.3658 11.5517 13.2582 11.8505 13.2582C12.1493 13.2582 12.4003 13.3658 12.6035 13.5809C12.8187 13.7961 12.9262 14.059 12.9262 14.3698C12.9262 14.7164 12.8187 14.9913 12.6035 15.1945C12.4003 15.3977 12.1493 15.4992 11.8505 15.4992C11.5517 15.4992 11.2947 15.3977 11.0796 15.1945C10.8645 14.9913 10.7569 14.7164 10.7569 14.3698ZM10.7569 8.97332C10.7569 8.66257 10.8645 8.39962 11.0796 8.18448C11.2947 7.96934 11.5517 7.86176 11.8505 7.86176C12.1493 7.86176 12.4003 7.96934 12.6035 8.18448C12.8187 8.39962 12.9262 8.66257 12.9262 8.97332C12.9262 9.31994 12.8187 9.59484 12.6035 9.79803C12.4003 10.0012 12.1493 10.1028 11.8505 10.1028C11.5517 10.1028 11.2947 10.0012 11.0796 9.79803C10.8645 9.59484 10.7569 9.31994 10.7569 8.97332ZM18.7468 4.68845C19.3324 4.68845 19.8703 4.79004 20.3603 4.99323C20.8623 5.19642 21.2926 5.51913 21.6512 5.96136C22.0217 6.39164 22.3085 6.94742 22.5117 7.6287C22.7269 8.30997 22.8344 9.1287 22.8344 10.0849C22.8344 11.0411 22.7209 11.8598 22.4938 12.5411C22.2787 13.2223 21.9799 13.7841 21.5974 14.2263C21.2269 14.6566 20.7906 14.9733 20.2886 15.1765C19.7986 15.3797 19.2846 15.4813 18.7468 15.4813C18.1611 15.4813 17.6173 15.3797 17.1153 15.1765C16.6253 14.9733 16.195 14.6566 15.8245 14.2263C15.4659 13.7841 15.179 13.2223 14.9639 12.5411C14.7607 11.8598 14.6591 11.0411 14.6591 10.0849C14.6591 9.16456 14.7667 8.36974 14.9818 7.70041C15.2089 7.01913 15.5077 6.45738 15.8782 6.01514C16.2607 5.56096 16.697 5.2263 17.187 5.01116C17.689 4.79602 18.2089 4.68845 18.7468 4.68845ZM16.2009 10.0849C16.2009 10.9574 16.2727 11.6686 16.4161 12.2184C16.5595 12.7682 16.7448 13.2044 16.9719 13.5271C17.2109 13.8379 17.4858 14.053 17.7966 14.1725C18.1073 14.2801 18.43 14.3339 18.7647 14.3339C19.0994 14.3339 19.4161 14.2682 19.7149 14.1367C20.0257 14.0052 20.2946 13.7781 20.5217 13.4554C20.7607 13.1327 20.946 12.7024 21.0775 12.1646C21.2209 11.6148 21.2926 10.9215 21.2926 10.0849C21.2926 9.21237 21.2209 8.50121 21.0775 7.95141C20.934 7.4016 20.7428 6.97132 20.5038 6.66056C20.2647 6.34981 19.9898 6.13467 19.6791 6.01514C19.3802 5.89562 19.0635 5.83586 18.7288 5.83586C18.3942 5.83586 18.0715 5.9016 17.7607 6.03307C17.4619 6.16455 17.193 6.39164 16.9539 6.71435C16.7268 7.03706 16.5416 7.47332 16.3982 8.02312C16.2667 8.56097 16.2009 9.24822 16.2009 10.0849ZM30.963 4.83187V5.87172L26.4271 15.6427L25.1721 15.0869L29.4929 6.051H24.4191V4.83187H30.963ZM32.7372 14.3698C32.7372 14.059 32.8448 13.7961 33.0599 13.5809C33.2751 13.3658 33.532 13.2582 33.8308 13.2582C34.1296 13.2582 34.3806 13.3658 34.5838 13.5809C34.799 13.7961 34.9065 14.059 34.9065 14.3698C34.9065 14.7164 34.799 14.9913 34.5838 15.1945C34.3806 15.3977 34.1296 15.4992 33.8308 15.4992C33.532 15.4992 33.2751 15.3977 33.0599 15.1945C32.8448 14.9913 32.7372 14.7164 32.7372 14.3698ZM32.7372 8.97332C32.7372 8.66257 32.8448 8.39962 33.0599 8.18448C33.2751 7.96934 33.532 7.86176 33.8308 7.86176C34.1296 7.86176 34.3806 7.96934 34.5838 8.18448C34.799 8.39962 34.9065 8.66257 34.9065 8.97332C34.9065 9.31994 34.799 9.59484 34.5838 9.79803C34.3806 10.0012 34.1296 10.1028 33.8308 10.1028C33.532 10.1028 33.2751 10.0012 33.0599 9.79803C32.8448 9.59484 32.7372 9.31994 32.7372 8.97332ZM40.7271 4.68845C41.3127 4.68845 41.8506 4.79004 42.3406 4.99323C42.8426 5.19642 43.2729 5.51913 43.6315 5.96136C44.002 6.39164 44.2889 6.94742 44.492 7.6287C44.7072 8.30997 44.8147 9.1287 44.8147 10.0849C44.8147 11.0411 44.7012 11.8598 44.4741 12.5411C44.259 13.2223 43.9602 13.7841 43.5777 14.2263C43.2072 14.6566 42.7709 14.9733 42.2689 15.1765C41.7789 15.3797 41.2649 15.4813 40.7271 15.4813C40.1414 15.4813 39.5976 15.3797 39.0956 15.1765C38.6056 14.9733 38.1753 14.6566 37.8048 14.2263C37.4462 13.7841 37.1593 13.2223 36.9442 12.5411C36.741 11.8598 36.6394 11.0411 36.6394 10.0849C36.6394 9.16456 36.747 8.36974 36.9621 7.70041C37.1892 7.01913 37.488 6.45738 37.8585 6.01514C38.241 5.56096 38.6773 5.2263 39.1673 5.01116C39.6693 4.79602 40.1892 4.68845 40.7271 4.68845ZM38.1813 10.0849C38.1813 10.9574 38.253 11.6686 38.3964 12.2184C38.5398 12.7682 38.7251 13.2044 38.9522 13.5271C39.1912 13.8379 39.4661 14.053 39.7769 14.1725C40.0876 14.2801 40.4103 14.3339 40.745 14.3339C41.0797 14.3339 41.3964 14.2682 41.6952 14.1367C42.006 14.0052 42.2749 13.7781 42.502 13.4554C42.741 13.1327 42.9263 12.7024 43.0578 12.1646C43.2012 11.6148 43.2729 10.9215 43.2729 10.0849C43.2729 9.21237 43.2012 8.50121 43.0578 7.95141C42.9143 7.4016 42.7231 6.97132 42.4841 6.66056C42.245 6.34981 41.9701 6.13467 41.6594 6.01514C41.3606 5.89562 41.0438 5.83586 40.7092 5.83586C40.3745 5.83586 40.0518 5.9016 39.741 6.03307C39.4422 6.16455 39.1733 6.39164 38.9342 6.71435C38.7072 7.03706 38.5219 7.47332 38.3785 8.02312C38.247 8.56097 38.1813 9.24822 38.1813 10.0849ZM49.3534 5.88965C48.9949 5.88965 48.6542 5.94941 48.3315 6.06893C48.0088 6.18845 47.6562 6.39762 47.2737 6.69642L46.6283 5.71036C47.1303 5.29203 47.6024 5.01713 48.0447 4.88566C48.4988 4.75418 48.9351 4.68845 49.3534 4.68845C49.9271 4.68845 50.4232 4.77211 50.8415 4.93944C51.2718 5.09482 51.6244 5.30996 51.8993 5.58486C52.1742 5.85976 52.3773 6.18845 52.5088 6.57092C52.6403 6.95339 52.706 7.36575 52.706 7.80798C52.706 8.21436 52.6224 8.62671 52.455 9.04504C52.2877 9.45141 52.0487 9.87572 51.7379 10.318C51.4391 10.7482 51.0686 11.2024 50.6263 11.6805C50.1961 12.1466 49.712 12.6427 49.1741 13.1686L48.1881 14.1188H52.957V15.3379H46.6462L46.3773 14.2801L47.7578 12.8996C48.3674 12.2901 48.8933 11.7462 49.3355 11.2682C49.7777 10.7901 50.1363 10.3538 50.4112 9.95938C50.6861 9.56496 50.8893 9.20042 51.0208 8.86575C51.1522 8.51914 51.218 8.1785 51.218 7.84384C51.218 7.27013 51.0626 6.80399 50.7518 6.44542C50.4411 6.07491 49.9749 5.88965 49.3534 5.88965Z" fill="#EBEBF5" fill-opacity="0.6"/>
<path d="M430.248 9.36775V10.7841H426.304V9.36775H430.248ZM434.627 5.88965C434.269 5.88965 433.928 5.94941 433.605 6.06893C433.283 6.18845 432.93 6.39762 432.548 6.69642L431.902 5.71036C432.404 5.29203 432.876 5.01713 433.319 4.88566C433.773 4.75418 434.209 4.68845 434.627 4.68845C435.201 4.68845 435.697 4.77211 436.115 4.93944C436.546 5.09482 436.898 5.30996 437.173 5.58486C437.448 5.85976 437.651 6.18845 437.783 6.57092C437.914 6.95339 437.98 7.36575 437.98 7.80798C437.98 8.21436 437.896 8.62671 437.729 9.04504C437.562 9.45141 437.323 9.87572 437.012 10.318C436.713 10.7482 436.343 11.2024 435.9 11.6805C435.47 12.1466 434.986 12.6427 434.448 13.1686L433.462 14.1188H438.231V15.3379H431.92L431.651 14.2801L433.032 12.8996C433.641 12.2901 434.167 11.7462 434.609 11.2682C435.052 10.7901 435.41 10.3538 435.685 9.95938C435.96 9.56496 436.163 9.20042 436.295 8.86575C436.426 8.51914 436.492 8.1785 436.492 7.84384C436.492 7.27013 436.337 6.80399 436.026 6.44542C435.715 6.07491 435.249 5.88965 434.627 5.88965ZM439.974 14.3698C439.974 14.059 440.082 13.7961 440.297 13.5809C440.512 13.3658 440.769 13.2582 441.068 13.2582C441.366 13.2582 441.617 13.3658 441.821 13.5809C442.036 13.7961 442.143 14.059 442.143 14.3698C442.143 14.7164 442.036 14.9913 441.821 15.1945C441.617 15.3977 441.366 15.4992 441.068 15.4992C440.769 15.4992 440.512 15.3977 440.297 15.1945C440.082 14.9913 439.974 14.7164 439.974 14.3698ZM439.974 8.97332C439.974 8.66257 440.082 8.39962 440.297 8.18448C440.512 7.96934 440.769 7.86176 441.068 7.86176C441.366 7.86176 441.617 7.96934 441.821 8.18448C442.036 8.39962 442.143 8.66257 442.143 8.97332C442.143 9.31994 442.036 9.59484 441.821 9.79803C441.617 10.0012 441.366 10.1028 441.068 10.1028C440.769 10.1028 440.512 10.0012 440.297 9.79803C440.082 9.59484 439.974 9.31994 439.974 8.97332ZM444.038 5.45937C444.48 5.18446 444.934 4.98725 445.4 4.86773C445.866 4.74821 446.308 4.68845 446.727 4.68845C447.193 4.68845 447.623 4.75418 448.018 4.88566C448.412 5.01713 448.747 5.20239 449.022 5.44144C449.308 5.68048 449.53 5.96734 449.685 6.302C449.84 6.62471 449.918 6.9773 449.918 7.35977C449.918 8.01714 449.745 8.56695 449.398 9.00918C449.063 9.43946 448.651 9.74424 448.161 9.92353C448.46 9.99524 448.741 10.1088 449.004 10.2642C449.267 10.4076 449.488 10.5869 449.667 10.802C449.858 11.0172 450.008 11.2622 450.115 11.5371C450.223 11.812 450.277 12.1048 450.277 12.4156C450.277 12.9773 450.163 13.4554 449.936 13.8498C449.721 14.2443 449.434 14.561 449.075 14.8C448.717 15.0391 448.31 15.2124 447.856 15.32C447.414 15.4275 446.96 15.4813 446.494 15.4813C446.04 15.4813 445.573 15.4395 445.095 15.3558C444.617 15.2722 444.205 15.1467 443.858 14.9793L444.199 13.8319C444.569 13.9753 444.916 14.0889 445.239 14.1725C445.561 14.2562 445.974 14.298 446.476 14.298C446.751 14.298 447.026 14.2682 447.301 14.2084C447.575 14.1367 447.82 14.0231 448.036 13.8678C448.251 13.7124 448.424 13.5152 448.556 13.2761C448.687 13.0371 448.753 12.7383 448.753 12.3797C448.753 11.7462 448.532 11.2861 448.089 10.9992C447.659 10.7124 447.109 10.5689 446.44 10.5689H445.185V9.43946H446.153C446.799 9.43946 447.336 9.28408 447.767 8.97332C448.197 8.66257 448.412 8.18448 448.412 7.53905C448.412 7.31196 448.364 7.09682 448.269 6.89363C448.173 6.67849 448.042 6.49921 447.874 6.35578C447.719 6.2004 447.534 6.08088 447.318 5.99722C447.103 5.9016 446.87 5.85379 446.619 5.85379C446.261 5.85379 445.926 5.9016 445.615 5.99722C445.304 6.08088 444.934 6.24224 444.504 6.48128L444.038 5.45937ZM456.696 4.68845C457.078 4.68845 457.431 4.71235 457.754 4.76016C458.076 4.80797 458.393 4.89163 458.704 5.01116L458.363 6.19443C458.124 6.09881 457.873 6.02112 457.61 5.96136C457.347 5.9016 457.061 5.87172 456.75 5.87172C456.26 5.87172 455.829 5.96136 455.459 6.14064C455.088 6.31993 454.778 6.57092 454.527 6.89363C454.276 7.21634 454.078 7.60479 453.935 8.05898C453.804 8.51316 453.732 9.01516 453.72 9.56496C454.031 9.18249 454.407 8.90161 454.849 8.72233C455.292 8.53109 455.746 8.43547 456.212 8.43547C456.678 8.43547 457.114 8.51316 457.521 8.66854C457.939 8.81197 458.298 9.03308 458.596 9.33189C458.907 9.61874 459.152 9.97731 459.331 10.4076C459.511 10.8259 459.6 11.31 459.6 11.8598C459.6 12.4096 459.505 12.9056 459.313 13.3478C459.134 13.7901 458.877 14.1725 458.543 14.4953C458.22 14.806 457.831 15.051 457.377 15.2303C456.935 15.3977 456.451 15.4813 455.925 15.4813C455.447 15.4813 454.981 15.3917 454.527 15.2124C454.084 15.0212 453.69 14.7283 453.343 14.3339C452.997 13.9395 452.716 13.4315 452.501 12.81C452.298 12.1765 452.196 11.4116 452.196 10.5152C452.196 9.43946 452.321 8.53109 452.572 7.79005C452.823 7.04901 453.152 6.4514 453.558 5.99722C453.977 5.53108 454.455 5.19642 454.993 4.99323C455.543 4.79004 456.11 4.68845 456.696 4.68845ZM453.72 11.5012C453.72 11.8956 453.774 12.2662 453.881 12.6128C453.989 12.9594 454.138 13.2642 454.329 13.5271C454.533 13.7781 454.772 13.9813 455.047 14.1367C455.333 14.2801 455.644 14.3518 455.979 14.3518C456.624 14.3518 457.144 14.1188 457.539 13.6526C457.933 13.1865 458.13 12.5949 458.13 11.8777C458.13 11.0889 457.927 10.5152 457.521 10.1566C457.126 9.78608 456.594 9.60082 455.925 9.60082C455.423 9.60082 454.999 9.72034 454.652 9.95938C454.317 10.1865 454.066 10.4554 453.899 10.7662C453.827 10.8976 453.78 11.0231 453.756 11.1427C453.732 11.2622 453.72 11.3817 453.72 11.5012ZM461.201 14.3698C461.201 14.059 461.309 13.7961 461.524 13.5809C461.739 13.3658 461.996 13.2582 462.295 13.2582C462.594 13.2582 462.845 13.3658 463.048 13.5809C463.263 13.7961 463.371 14.059 463.371 14.3698C463.371 14.7164 463.263 14.9913 463.048 15.1945C462.845 15.3977 462.594 15.4992 462.295 15.4992C461.996 15.4992 461.739 15.3977 461.524 15.1945C461.309 14.9913 461.201 14.7164 461.201 14.3698ZM461.201 8.97332C461.201 8.66257 461.309 8.39962 461.524 8.18448C461.739 7.96934 461.996 7.86176 462.295 7.86176C462.594 7.86176 462.845 7.96934 463.048 8.18448C463.263 8.39962 463.371 8.66257 463.371 8.97332C463.371 9.31994 463.263 9.59484 463.048 9.79803C462.845 10.0012 462.594 10.1028 462.295 10.1028C461.996 10.1028 461.739 10.0012 461.524 9.79803C461.309 9.59484 461.201 9.31994 461.201 8.97332ZM469.765 4.83187H471.092V11.4474H472.741V12.6666H471.092V15.3379H469.729V12.6666H464.727V11.7522L469.765 4.83187ZM466.377 11.4474H469.729V8.54304L469.801 6.44542H469.765L468.958 7.86176L466.377 11.4474ZM479.047 4.83187H480.374V11.4474H482.023V12.6666H480.374V15.3379H479.011V12.6666H474.009V11.7522L479.047 4.83187ZM475.658 11.4474H479.011V8.54304L479.083 6.44542H479.047L478.24 7.86176L475.658 11.4474Z" fill="#EBEBF5" fill-opacity="0.6"/>
<rect x="75.1132" y="6.85742" width="322.776" height="8.14925" rx="4.07463" fill="#787880" fill-opacity="0.32"/>
<circle cx="98.7463" cy="10.932" r="7.33433" fill="white"/>
</svg>
